<svg width="17" height="17" viewBox="0 0 17 17" fill="none" xmlns="http://www.w3.org/2000/svg">
<path d="M13.221 17C11.6593 16.9986 10.1219 16.6126 8.74473 15.8762L8.31977 15.6401C5.38353 14.0615 2.97632 11.6542 1.39765 8.71803L1.16156 8.29307C0.405903 6.90808 0.00673384 5.35678 5.87159e-07 3.77905V3.14633C-0.000396042 2.64295 0.200166 2.16024 0.55717 1.80535L2.15313 0.209393C2.30813 0.0531976 2.52692 -0.0220862 2.7452 0.00565889C2.96349 0.033404 3.15649 0.161043 3.26747 0.351046L5.39227 3.99625C5.60714 4.36727 5.54509 4.83649 5.24117 5.13891L3.45634 6.92376C3.30811 7.07032 3.27358 7.29678 3.37135 7.48093L3.70187 8.1042C4.88897 10.303 6.69482 12.1056 8.89583 13.2887L9.5191 13.6287C9.70325 13.7264 9.92971 13.6918 10.0763 13.5437L11.8611 11.7588C12.1635 11.455 12.6327 11.3929 13.0038 11.6077L16.649 13.7325C16.839 13.8435 16.9667 14.0365 16.9943 14.2548C17.0221 14.4731 16.9468 14.6919 16.7906 14.8469L15.1947 16.4428C14.8398 16.7998 14.357 17.0004 13.8537 17H13.221Z" fill="#EA1A1A"/>
</svg>
