<svg width="18" height="18" viewBox="0 0 18 18" fill="none" xmlns="http://www.w3.org/2000/svg">
<path fill-rule="evenodd" clip-rule="evenodd" d="M12.0159 2.32944C12.0159 2.70198 11.7139 3.00398 11.3414 3.00398H4.65887V3.08493C4.65396 3.95215 3.95215 4.65396 3.08493 4.65887H1.57394C0.706722 4.65396 0.00491355 3.95215 0 3.08493V1.57394C0.00491355 0.706722 0.706722 0.00491355 1.57394 0H3.08493C3.95215 0.00491355 4.65396 0.706722 4.65887 1.57394V1.65489H11.3414C11.7139 1.65489 12.0159 1.95689 12.0159 2.32944ZM3.08493 3.30978C3.20911 3.30978 3.30978 3.20911 3.30978 3.08493V1.57394C3.30978 1.44976 3.20911 1.34909 3.08493 1.34909H1.57394C1.45173 1.35371 1.35371 1.45173 1.34909 1.57394V3.08493C1.34909 3.20911 1.44976 3.30978 1.57394 3.30978H3.08493Z" fill="#EA1A1A"/>
<path fill-rule="evenodd" clip-rule="evenodd" d="M14.7951 0H16.3061C17.1733 0.00491355 17.8751 0.706722 17.88 1.57394V3.08493C17.8751 3.95215 17.1733 4.65396 16.3061 4.65887H16.2251V11.3414C16.2251 11.7139 15.9231 12.0159 15.5506 12.0159C15.178 12.0159 14.876 11.7139 14.876 11.3414V4.65887H14.7951C13.9278 4.65396 13.226 3.95215 13.2211 3.08493V1.57394C13.226 0.706722 13.9278 0.00491355 14.7951 0ZM16.3061 3.30978C16.4302 3.30978 16.5309 3.20911 16.5309 3.08493V1.57394C16.5263 1.45173 16.4283 1.35371 16.3061 1.34909H14.7951C14.6709 1.34909 14.5702 1.44976 14.5702 1.57394V3.08493C14.5702 3.20911 14.6709 3.30978 14.7951 3.30978H16.3061Z" fill="#EA1A1A"/>
<path fill-rule="evenodd" clip-rule="evenodd" d="M3.00398 13.2211H3.08493C3.95215 13.226 4.65396 13.9278 4.65887 14.7951V16.3061C4.65396 17.1733 3.95215 17.8751 3.08493 17.88H1.57394C0.706722 17.8751 0.00491355 17.1733 0 16.3061V14.7951C0.00491355 13.9278 0.706722 13.226 1.57394 13.2211H1.65489V6.53861C1.65489 6.16607 1.95689 5.86406 2.32944 5.86406C2.70198 5.86406 3.00398 6.16607 3.00398 6.53861V13.2211ZM3.08493 16.5309C3.20911 16.5309 3.30978 16.4302 3.30978 16.3061V14.7951C3.30978 14.6709 3.20911 14.5702 3.08493 14.5702H1.57394C1.44976 14.5702 1.34909 14.6709 1.34909 14.7951V16.3061C1.35371 16.4283 1.45173 16.5263 1.57394 16.5309H3.08493Z" fill="#EA1A1A"/>
<path fill-rule="evenodd" clip-rule="evenodd" d="M14.7951 13.2211H16.3061C17.1733 13.226 17.8751 13.9278 17.88 14.7951V16.3061C17.8751 17.1733 17.1733 17.8751 16.3061 17.88H14.7951C13.9278 17.8751 13.226 17.1733 13.2211 16.3061V16.2251H6.53861C6.16607 16.2251 5.86406 15.9231 5.86406 15.5506C5.86406 15.178 6.16607 14.876 6.53861 14.876H13.2211V14.7951C13.226 13.9278 13.9278 13.226 14.7951 13.2211ZM16.3061 16.5309C16.4283 16.5263 16.5263 16.4283 16.5309 16.3061V14.7951C16.5309 14.6709 16.4302 14.5702 16.3061 14.5702H14.7951C14.6709 14.5702 14.5702 14.6709 14.5702 14.7951V16.3061C14.5702 16.4302 14.6709 16.5309 14.7951 16.5309H16.3061Z" fill="#EA1A1A"/>
</svg>
