<svg width="30" height="30" viewBox="0 0 30 30" fill="none" xmlns="http://www.w3.org/2000/svg">
<path fill-rule="evenodd" clip-rule="evenodd" d="M15 2.50038C10.8325 2.47096 7.37084 5.70817 7.12123 9.86828C6.87162 14.0284 9.92139 17.6563 14.0625 18.1254V23.5004C14.0625 24.0181 14.4822 24.4379 15 24.4379C15.5178 24.4379 15.9375 24.0181 15.9375 23.5004V18.1254C20.0786 17.6563 23.1284 14.0284 22.8788 9.86828C22.6292 5.70817 19.1675 2.47096 15 2.50038ZM14.1875 6.83788C12.7495 6.83787 11.5819 7.99992 11.575 9.43788C11.575 9.95565 11.1553 10.3754 10.6375 10.3754C10.1197 10.3754 9.7 9.95565 9.7 9.43788C9.70689 6.96439 11.714 4.96287 14.1875 4.96288C14.7053 4.96288 15.125 5.38262 15.125 5.90038C15.125 6.41815 14.7053 6.83788 14.1875 6.83788Z" fill="black"/>
<path d="M19.775 19.7379C20.0135 19.2872 20.5651 19.1052 21.025 19.3254C22.5599 19.9165 23.6194 21.3358 23.75 22.9754C23.75 25.7379 20 27.8254 15 27.8254C10 27.8254 6.25 25.7379 6.25 22.9754C6.40343 21.3591 7.45914 19.9693 8.975 19.3879C9.43754 19.1532 10.0028 19.3378 10.2375 19.8004C10.4722 20.2629 10.2875 20.8282 9.825 21.0629C8.725 21.6254 8.1 22.3254 8.1 22.9754C8.1 24.3254 11.0625 25.8754 15.0125 25.8754C18.9625 25.8754 21.9125 24.3129 21.9125 22.9004C21.9125 22.2379 21.2875 21.5504 20.1875 20.9879C19.7314 20.754 19.5477 20.1973 19.775 19.7379Z" fill="black"/>
</svg>
