<svg width="169" height="19" viewBox="0 0 169 19" fill="none" xmlns="http://www.w3.org/2000/svg">
<path d="M6.37109 13.874L4.97949 18H0.963379L7.49414 0.15332H11.5835L18.0776 18H14.0737L12.6821 13.874H6.37109ZM7.32324 10.9443H11.7422L9.54492 4.4624L7.32324 10.9443ZM30.6143 0.15332H34.374V11.5059C34.374 13.6055 33.7474 15.2371 32.4941 16.4009C31.2409 17.5565 29.418 18.1343 27.0254 18.1343C24.6328 18.1343 22.8099 17.5565 21.5566 16.4009C20.3034 15.2371 19.6768 13.6055 19.6768 11.5059V0.15332H23.4243V11.4937C23.4243 12.4784 23.6969 13.2677 24.2422 13.8618C24.7956 14.4478 25.7274 14.7407 27.0376 14.7407C28.3397 14.7407 29.2593 14.4478 29.7964 13.8618C30.3416 13.2677 30.6143 12.4784 30.6143 11.4937V0.15332ZM46.0195 18H42.2598V3.37598H36.5835V0.15332H51.6836V3.37598H46.0195V18ZM61.5103 0.03125C62.9344 0.03125 64.1551 0.271322 65.1724 0.751465C66.1978 1.23161 67.036 1.89486 67.687 2.74121C68.3381 3.57943 68.8182 4.54378 69.1274 5.63428C69.4367 6.71663 69.5913 7.86816 69.5913 9.08887C69.5913 10.3096 69.4326 11.4652 69.1152 12.5557C68.806 13.638 68.3258 14.5983 67.6748 15.4365C67.0238 16.2747 66.1855 16.9339 65.1602 17.4141C64.1429 17.8942 62.9263 18.1343 61.5103 18.1343C60.0942 18.1343 58.8735 17.8942 57.8481 17.4141C56.8309 16.9339 55.9927 16.2747 55.3335 15.4365C54.6743 14.5983 54.186 13.638 53.8687 12.5557C53.5594 11.4652 53.4048 10.3096 53.4048 9.08887C53.4048 7.86816 53.5594 6.71663 53.8687 5.63428C54.186 4.54378 54.6702 3.57943 55.3213 2.74121C55.9805 1.89486 56.8187 1.23161 57.8359 0.751465C58.8613 0.271322 60.0861 0.03125 61.5103 0.03125ZM61.5103 3.27832C60.6476 3.27832 59.8908 3.49398 59.2397 3.92529C58.5968 4.34847 58.0964 4.99137 57.7383 5.854C57.3802 6.7085 57.2012 7.78678 57.2012 9.08887C57.2012 10.391 57.3761 11.4733 57.7261 12.3359C58.0841 13.1904 58.5846 13.8333 59.2275 14.2646C59.8786 14.6878 60.6395 14.8994 61.5103 14.8994C62.3892 14.8994 63.1501 14.6878 63.793 14.2646C64.4359 13.8333 64.9323 13.1904 65.2822 12.3359C65.6403 11.4733 65.8193 10.391 65.8193 9.08887C65.8193 7.78678 65.6403 6.7085 65.2822 5.854C64.9242 4.99137 64.4196 4.34847 63.7686 3.92529C63.1257 3.49398 62.3729 3.27832 61.5103 3.27832Z" fill="white"/>
<path d="M81.1514 18H77.4038V0.15332H81.7983L87.3037 14.3257L92.8335 0.15332H97.2646V18H93.5049V6.26904L89.0981 18H85.4849L81.1514 6.28125V18ZM104.369 13.874L102.978 18H98.9614L105.492 0.15332H109.582L116.076 18H112.072L110.68 13.874H104.369ZM105.321 10.9443H109.74L107.543 4.4624L105.321 10.9443ZM127.746 9.46729L132.238 18H128.539L124.474 9.46729H127.746ZM121.532 18H117.772V0.15332H125.121C127.115 0.15332 128.633 0.641602 129.674 1.61816C130.724 2.58659 131.249 3.97819 131.249 5.79297C131.249 7.61589 130.724 9.01562 129.674 9.99219C128.633 10.9688 127.115 11.457 125.121 11.457H121.532V18ZM121.532 3.37598V8.23438H125.023C125.845 8.23438 126.464 8.01872 126.879 7.5874C127.294 7.15609 127.501 6.55794 127.501 5.79297C127.501 5.02799 127.294 4.43392 126.879 4.01074C126.464 3.58757 125.845 3.37598 125.023 3.37598H121.532ZM142.357 18H138.598V3.37598H132.921V0.15332H148.021V3.37598H142.357V18Z" fill="#EA1A1A"/>
<path d="M151 0H169C169 2.20914 167.209 4 165 4H151V0Z" fill="#EA1A1A"/>
<path d="M151 7H165C165 9.20914 163.209 11 161 11H151V7Z" fill="#EA1A1A"/>
<path d="M151 14H159C159 16.2091 157.209 18 155 18H151V14Z" fill="#EA1A1A"/>
</svg>
