<svg width="1920" height="25" viewBox="0 0 1920 25" fill="none" xmlns="http://www.w3.org/2000/svg">
<line y1="12.5" x2="834" y2="12.5" stroke="#EA1A1A"/>
<path d="M880.118 2.4375C881.827 2.4375 883.292 2.72559 884.513 3.30176C885.743 3.87793 886.749 4.67383 887.53 5.68945C888.312 6.69531 888.888 7.85254 889.259 9.16113C889.63 10.46 889.815 11.8418 889.815 13.3066C889.815 14.7715 889.625 16.1582 889.244 17.4668C888.873 18.7656 888.297 19.918 887.516 20.9238C886.734 21.9297 885.729 22.7207 884.498 23.2969C883.277 23.873 881.817 24.1611 880.118 24.1611C878.419 24.1611 876.954 23.873 875.724 23.2969C874.503 22.7207 873.497 21.9297 872.706 20.9238C871.915 19.918 871.329 18.7656 870.948 17.4668C870.577 16.1582 870.392 14.7715 870.392 13.3066C870.392 11.8418 870.577 10.46 870.948 9.16113C871.329 7.85254 871.91 6.69531 872.691 5.68945C873.482 4.67383 874.488 3.87793 875.709 3.30176C876.939 2.72559 878.409 2.4375 880.118 2.4375ZM880.118 6.33398C879.083 6.33398 878.175 6.59277 877.394 7.11035C876.622 7.61816 876.021 8.38965 875.592 9.4248C875.162 10.4502 874.947 11.7441 874.947 13.3066C874.947 14.8691 875.157 16.168 875.577 17.2031C876.007 18.2285 876.607 19 877.379 19.5176C878.16 20.0254 879.073 20.2793 880.118 20.2793C881.173 20.2793 882.086 20.0254 882.857 19.5176C883.629 19 884.225 18.2285 884.645 17.2031C885.074 16.168 885.289 14.8691 885.289 13.3066C885.289 11.7441 885.074 10.4502 884.645 9.4248C884.215 8.38965 883.609 7.61816 882.828 7.11035C882.057 6.59277 881.153 6.33398 880.118 6.33398ZM902.955 7.90137H907.452V24H903.175L902.955 20.1182V7.90137ZM893.009 18.5361V7.90137H897.506V17.7012C897.506 18.3652 897.696 18.8633 898.077 19.1953C898.458 19.5176 898.995 19.6787 899.688 19.6787C900.548 19.6787 901.261 19.4346 901.827 18.9463C902.394 18.458 902.77 17.7354 902.955 16.7783L903.6 18.5654C903.541 19.6982 903.282 20.6846 902.823 21.5244C902.364 22.3545 901.754 22.999 900.992 23.458C900.23 23.917 899.356 24.1465 898.37 24.1465C897.354 24.1465 896.441 23.9072 895.631 23.4287C894.82 22.9404 894.181 22.2764 893.712 21.4365C893.243 20.5869 893.009 19.6201 893.009 18.5361ZM911.129 7.90137H915.406L915.626 12.2959V24H911.129V7.90137ZM921.808 11.9297C921.476 11.8516 921.114 11.8125 920.724 11.8125C919.698 11.8125 918.81 12.0908 918.058 12.6475C917.315 13.2041 916.734 13.9512 916.314 14.8887C915.904 15.8164 915.675 16.8418 915.626 17.9648L914.454 17.7744C914.493 16.5732 914.625 15.3818 914.85 14.2002C915.074 13.0088 915.431 11.9248 915.919 10.9482C916.417 9.97168 917.081 9.19043 917.911 8.60449C918.751 8.01855 919.801 7.72559 921.061 7.72559C921.197 7.72559 921.334 7.73535 921.471 7.75488C921.607 7.76465 921.739 7.7793 921.866 7.79883L921.808 11.9297ZM929.469 16.8809H933.893C933.893 17.6133 934.034 18.2334 934.317 18.7412C934.601 19.249 935.021 19.6348 935.577 19.8984C936.134 20.1523 936.822 20.2793 937.643 20.2793C938.268 20.2793 938.819 20.1963 939.298 20.0303C939.776 19.8545 940.152 19.5957 940.426 19.2539C940.709 18.9121 940.851 18.4824 940.851 17.9648C940.851 17.3984 940.631 16.9346 940.191 16.5732C939.762 16.2119 939.249 15.9238 938.653 15.709C938.067 15.4941 937.535 15.3184 937.057 15.1816C936.266 14.957 935.455 14.6885 934.625 14.376C933.805 14.0537 933.043 13.6436 932.34 13.1455C931.637 12.6475 931.065 12.0273 930.626 11.2852C930.196 10.5332 929.981 9.625 929.981 8.56055C929.981 7.25195 930.299 6.14355 930.934 5.23535C931.568 4.31738 932.418 3.62402 933.482 3.15527C934.547 2.67676 935.729 2.4375 937.027 2.4375C938.658 2.4375 940.069 2.72559 941.261 3.30176C942.462 3.86816 943.385 4.66895 944.029 5.7041C944.684 6.73926 945.011 7.95508 945.011 9.35156H940.572C940.572 8.73633 940.45 8.2041 940.206 7.75488C939.962 7.2959 939.596 6.94434 939.107 6.7002C938.629 6.44629 938.038 6.31934 937.335 6.31934C936.759 6.31934 936.251 6.40723 935.812 6.58301C935.372 6.74902 935.03 6.99805 934.786 7.33008C934.542 7.65234 934.42 8.04785 934.42 8.5166C934.42 9.09277 934.645 9.56641 935.094 9.9375C935.553 10.2988 936.09 10.5869 936.705 10.8018C937.32 11.0166 937.872 11.1973 938.36 11.3438C939.142 11.5586 939.938 11.832 940.748 12.1641C941.568 12.4863 942.32 12.9014 943.004 13.4092C943.688 13.917 944.239 14.5469 944.659 15.2988C945.079 16.0508 945.289 16.959 945.289 18.0234C945.289 19.0879 945.079 20.0059 944.659 20.7773C944.239 21.5488 943.673 22.1836 942.96 22.6816C942.247 23.1797 941.446 23.5508 940.558 23.7949C939.669 24.0391 938.756 24.1611 937.818 24.1611C936.148 24.1611 934.688 23.8877 933.438 23.3408C932.188 22.7939 931.212 21.9785 930.509 20.8945C929.815 19.8105 929.469 18.4727 929.469 16.8809ZM952.174 17.3643C952.281 18.3311 952.589 19.1025 953.097 19.6787C953.604 20.2549 954.347 20.543 955.323 20.543C955.958 20.543 956.505 20.4062 956.964 20.1328C957.423 19.8496 957.74 19.4834 957.916 19.0342L962.223 19.752C961.744 21.1387 960.914 22.2227 959.732 23.0039C958.551 23.7754 957.027 24.1611 955.162 24.1611C953.492 24.1611 952.096 23.8193 950.973 23.1357C949.859 22.4521 949.02 21.4951 948.453 20.2646C947.896 19.0342 947.618 17.5986 947.618 15.958C947.618 14.3174 947.901 12.8867 948.468 11.666C949.044 10.4355 949.889 9.47852 951.002 8.79492C952.115 8.11133 953.482 7.76953 955.104 7.76953C956.646 7.76953 957.931 8.01855 958.956 8.5166C959.981 9.01465 960.782 9.70312 961.358 10.582C961.944 11.4609 962.34 12.4814 962.545 13.6436C962.75 14.7959 962.809 16.0361 962.721 17.3643H952.174ZM952.218 14.4492H958.15C958.102 13.7168 957.945 13.126 957.682 12.6768C957.428 12.2178 957.086 11.8809 956.656 11.666C956.227 11.4512 955.724 11.3438 955.147 11.3438C954.376 11.3438 953.712 11.6025 953.155 12.1201C952.599 12.6279 952.286 13.4043 952.218 14.4492ZM965.592 7.90137H969.869L970.089 12.2959V24H965.592V7.90137ZM976.271 11.9297C975.938 11.8516 975.577 11.8125 975.187 11.8125C974.161 11.8125 973.272 12.0908 972.521 12.6475C971.778 13.2041 971.197 13.9512 970.777 14.8887C970.367 15.8164 970.138 16.8418 970.089 17.9648L968.917 17.7744C968.956 16.5732 969.088 15.3818 969.312 14.2002C969.537 13.0088 969.894 11.9248 970.382 10.9482C970.88 9.97168 971.544 9.19043 972.374 8.60449C973.214 8.01855 974.264 7.72559 975.523 7.72559C975.66 7.72559 975.797 7.73535 975.934 7.75488C976.07 7.76465 976.202 7.7793 976.329 7.79883L976.271 11.9297ZM988.663 7.90137H993.482L987.755 24H982.525L976.695 7.90137H981.515L985.133 19.1367L988.663 7.90137ZM995.108 2.93555C995.108 2.27148 995.348 1.71973 995.826 1.28027C996.305 0.831055 996.876 0.606445 997.54 0.606445C998.194 0.606445 998.756 0.831055 999.225 1.28027C999.703 1.71973 999.942 2.27148 999.942 2.93555C999.942 3.58984 999.703 4.15137 999.225 4.62012C998.756 5.08887 998.194 5.32324 997.54 5.32324C996.876 5.32324 996.305 5.08887 995.826 4.62012C995.348 4.15137 995.108 3.58984 995.108 2.93555ZM995.27 7.90137H999.781V24H995.27V7.90137ZM1010.36 7.76953C1011.8 7.76953 1013.04 8.02344 1014.08 8.53125C1015.11 9.03906 1015.92 9.75195 1016.5 10.6699C1017.08 11.5879 1017.41 12.6621 1017.49 13.8926L1013.16 13.9805C1013.06 13.0625 1012.75 12.3936 1012.22 11.9736C1011.69 11.5537 1011.07 11.3438 1010.34 11.3438C1009.41 11.3438 1008.65 11.7002 1008.09 12.4131C1007.53 13.1162 1007.25 14.2832 1007.25 15.9141C1007.25 17.5645 1007.53 18.751 1008.09 19.4736C1008.65 20.1963 1009.41 20.5576 1010.34 20.5576C1011.07 20.5576 1011.69 20.3477 1012.22 19.9277C1012.75 19.5078 1013.06 18.8389 1013.16 17.9209L1017.49 17.9941C1017.41 19.2246 1017.08 20.3037 1016.5 21.2314C1015.92 22.1494 1015.11 22.8672 1014.08 23.3848C1013.04 23.8926 1011.8 24.1465 1010.36 24.1465C1008.67 24.1465 1007.26 23.8096 1006.12 23.1357C1005 22.4619 1004.16 21.5098 1003.59 20.2793C1003.02 19.0488 1002.74 17.6035 1002.74 15.9434C1002.74 14.2832 1003.02 12.8428 1003.59 11.6221C1004.16 10.3916 1005 9.44434 1006.12 8.78027C1007.26 8.10645 1008.67 7.76953 1010.36 7.76953ZM1024.48 17.3643C1024.59 18.3311 1024.89 19.1025 1025.4 19.6787C1025.91 20.2549 1026.65 20.543 1027.63 20.543C1028.26 20.543 1028.81 20.4062 1029.27 20.1328C1029.73 19.8496 1030.04 19.4834 1030.22 19.0342L1034.53 19.752C1034.05 21.1387 1033.22 22.2227 1032.04 23.0039C1030.86 23.7754 1029.33 24.1611 1027.47 24.1611C1025.8 24.1611 1024.4 23.8193 1023.28 23.1357C1022.16 22.4521 1021.32 21.4951 1020.76 20.2646C1020.2 19.0342 1019.92 17.5986 1019.92 15.958C1019.92 14.3174 1020.21 12.8867 1020.77 11.666C1021.35 10.4355 1022.19 9.47852 1023.31 8.79492C1024.42 8.11133 1025.79 7.76953 1027.41 7.76953C1028.95 7.76953 1030.24 8.01855 1031.26 8.5166C1032.29 9.01465 1033.09 9.70312 1033.66 10.582C1034.25 11.4609 1034.64 12.4814 1034.85 13.6436C1035.05 14.7959 1035.11 16.0361 1035.03 17.3643H1024.48ZM1024.52 14.4492H1030.46C1030.41 13.7168 1030.25 13.126 1029.99 12.6768C1029.73 12.2178 1029.39 11.8809 1028.96 11.666C1028.53 11.4512 1028.03 11.3438 1027.45 11.3438C1026.68 11.3438 1026.02 11.6025 1025.46 12.1201C1024.9 12.6279 1024.59 13.4043 1024.52 14.4492ZM1043.74 7.75488C1045.86 7.75488 1047.48 8.25293 1048.6 9.24902C1049.73 10.2354 1050.23 11.6123 1050.11 13.3799L1046.52 13.2773C1046.52 12.6426 1046.28 12.1543 1045.79 11.8125C1045.31 11.4609 1044.64 11.2852 1043.77 11.2852C1043.01 11.2852 1042.4 11.417 1041.95 11.6807C1041.51 11.9443 1041.29 12.3105 1041.29 12.7793C1041.29 13.1797 1041.51 13.4873 1041.94 13.7021C1042.37 13.9072 1043.12 14.1318 1044.2 14.376C1046.31 14.8447 1047.86 15.4893 1048.82 16.3096C1049.79 17.1201 1050.27 18.126 1050.27 19.3271C1050.27 20.2939 1050 21.1387 1049.44 21.8613C1048.88 22.584 1048.1 23.1455 1047.1 23.5459C1046.09 23.9463 1044.91 24.1465 1043.57 24.1465C1041.42 24.1465 1039.75 23.6387 1038.56 22.623C1037.37 21.5977 1036.85 20.2207 1036.99 18.4922L1040.56 18.624C1040.56 19.2783 1040.83 19.7812 1041.37 20.1328C1041.91 20.4746 1042.69 20.6455 1043.71 20.6455C1044.52 20.6455 1045.14 20.5283 1045.57 20.2939C1046 20.0498 1046.22 19.708 1046.22 19.2686C1046.22 18.8486 1045.97 18.5215 1045.47 18.2871C1044.98 18.0527 1044.17 17.8086 1043.04 17.5547C1041.01 17.0957 1039.54 16.4707 1038.63 15.6797C1037.72 14.8789 1037.27 13.8584 1037.27 12.6182C1037.27 11.124 1037.85 9.94238 1039.01 9.07324C1040.17 8.19434 1041.75 7.75488 1043.74 7.75488Z" fill="#EA1A1A"/>
<line x1="1087" y1="12.5" x2="1921" y2="12.5" stroke="#EA1A1A"/>
</svg>
