<svg width="18" height="18" viewBox="0 0 18 18" fill="none" xmlns="http://www.w3.org/2000/svg">
<path d="M14.1009 17.44C12.5392 17.4386 11.0018 17.0526 9.62461 16.3162L9.19965 16.0801C6.26342 14.5015 3.8562 12.0942 2.27753 9.15803L2.04144 8.73307C1.28579 7.34809 0.886617 5.79678 0.879883 4.21905V3.58633C0.879487 3.08295 1.08005 2.60024 1.43705 2.24535L3.03301 0.649396C3.18801 0.4932 3.4068 0.417916 3.62509 0.445661C3.84337 0.473406 4.03637 0.601045 4.14735 0.791049L6.27215 4.43625C6.48702 4.80728 6.42498 5.2765 6.12105 5.57892L4.33622 7.36376C4.188 7.51032 4.15346 7.73678 4.25123 7.92093L4.58176 8.5442C5.76885 10.743 7.5747 12.5456 9.77571 13.7287L10.399 14.0687C10.5831 14.1664 10.8096 14.1318 10.9562 13.9837L12.741 12.1988C13.0434 11.895 13.5126 11.8329 13.8837 12.0477L17.5289 14.1725C17.7189 14.2835 17.8465 14.4765 17.8742 14.6948C17.902 14.9131 17.8267 15.1319 17.6705 15.2869L16.0746 16.8828C15.7197 17.2398 15.2369 17.4404 14.7336 17.44H14.1009Z" fill="white"/>
</svg>
