<svg width="17" height="18" viewBox="0 0 17 18" fill="none" xmlns="http://www.w3.org/2000/svg">
<path d="M6.98893 11.0723H10.0111C10.4619 11.0727 10.8941 11.2559 11.2128 11.5815C11.5315 11.9072 11.7106 12.3487 11.711 12.8091V15.7031C11.711 16.022 11.9658 16.2817 12.278 16.2817H15.3001C15.4502 16.2814 15.5941 16.2203 15.7003 16.1119C15.8065 16.0035 15.8662 15.8565 15.8666 15.7031V8.13213C15.8667 8.04864 15.8491 7.96612 15.815 7.89024C15.7809 7.81437 15.7311 7.74693 15.6691 7.69259L8.86894 1.73955C8.76655 1.64881 8.63555 1.59886 8.5 1.59886C8.36445 1.59886 8.23345 1.64881 8.13106 1.73955L1.33153 7.69199C1.26932 7.74623 1.21938 7.81363 1.18518 7.88952C1.15098 7.96542 1.13333 8.04799 1.13345 8.13154V15.7025C1.13376 15.8559 1.19353 16.0029 1.29969 16.1113C1.40585 16.2197 1.54975 16.2808 1.69988 16.2811H4.72261C4.87274 16.2808 5.01664 16.2197 5.1228 16.1113C5.22896 16.0029 5.28874 15.8559 5.28904 15.7025V12.8091C5.2895 12.3487 5.46873 11.9073 5.7874 11.5817C6.10607 11.2561 6.53818 11.0729 6.98893 11.0723ZM15.3001 17.4394H12.278C11.8273 17.4389 11.3952 17.2559 11.0765 16.9303C10.7578 16.6048 10.5785 16.1635 10.5781 15.7031V12.8091C10.5781 12.6555 10.5184 12.5081 10.412 12.3994C10.3057 12.2907 10.1615 12.2295 10.0111 12.2294H6.98893C6.83859 12.2297 6.69452 12.2909 6.58833 12.3996C6.48213 12.5083 6.42249 12.6556 6.42249 12.8091V15.7031C6.42188 16.1634 6.24259 16.6047 5.92393 16.9302C5.60527 17.2557 5.17326 17.4388 4.72261 17.4394H1.69988C1.24924 17.4388 0.817219 17.2557 0.498562 16.9302C0.179904 16.6047 0.00061292 16.1634 0 15.7031V8.13213C0 7.62455 0.216612 7.1436 0.593656 6.81291L7.39377 0.861055C7.7011 0.58947 8.0939 0.440002 8.50029 0.440002C8.90668 0.440002 9.29948 0.58947 9.60681 0.861055L16.4069 6.81409C16.5931 6.97716 16.7425 7.17945 16.8449 7.40706C16.9472 7.63468 17.0002 7.88223 17 8.13272V15.7037C16.9995 16.1641 16.8203 16.6054 16.5016 16.9309C16.1829 17.2565 15.7508 17.4395 15.3001 17.44V17.4394Z" fill="#EA1A1A"/>
</svg>
