<svg width="1033" height="385" viewBox="0 0 1033 385" fill="none" xmlns="http://www.w3.org/2000/svg">
<path d="M91.8125 0.816406H115.543L91.8711 89H70.543L57.8867 36.207L45.0547 89H23.7266L0.171875 0.816406H23.8438L35.6211 54.4297L48.043 0.816406H67.6133L79.9766 54.4297L91.8125 0.816406ZM181.637 69.6055V89H123.512V0.816406H181.637V20.3867H146.363V35.9727H178.355V53.8438H146.363V69.6055H181.637ZM189.195 0.816406H200.914L199.742 31.168H190.367L189.195 0.816406ZM267.945 46.8711L289.742 89H267.359L248.141 46.8711H267.945ZM237.418 89H214.566V0.816406H252.652C263.277 0.816406 271.305 3.27734 276.734 8.19922C282.203 13.082 284.938 20.2891 284.938 29.8203C284.938 39.3516 282.203 46.5781 276.734 51.5C271.305 56.4219 263.277 58.8828 252.652 58.8828H237.418V89ZM237.418 20.3867V39.3125H251.949C255.309 39.3125 257.828 38.5117 259.508 36.9102C261.227 35.3086 262.086 32.9258 262.086 29.7617C262.086 26.6367 261.227 24.293 259.508 22.7305C257.828 21.168 255.309 20.3867 251.949 20.3867H237.418ZM354.723 69.6055V89H296.598V0.816406H354.723V20.3867H319.449V35.9727H351.441V53.8438H319.449V69.6055H354.723ZM45.5674 178.262V192H3.85596V129.537H20.0425V178.262H45.5674ZM93.2554 178.262V192H52.0835V129.537H93.2554V143.399H68.27V154.439H90.9312V167.098H68.27V178.262H93.2554ZM115.501 178.968L111.351 192H94.0024L116.539 129.537H133.888L156.341 192H139.034L134.884 178.968H115.501ZM119.527 166.434H130.941L125.255 148.504L119.527 166.434ZM212.206 160.789C212.206 164.746 211.68 168.592 210.628 172.327C209.577 176.035 207.903 179.369 205.606 182.33C203.31 185.29 200.294 187.642 196.559 189.385C192.823 191.128 188.272 192 182.904 192H160.741V129.537H182.904C188.272 129.537 192.823 130.408 196.559 132.151C200.294 133.895 203.31 136.246 205.606 139.207C207.903 142.168 209.577 145.516 210.628 149.251C211.68 152.986 212.206 156.832 212.206 160.789ZM195.978 160.789C195.978 156.417 195.562 152.972 194.732 150.455C193.93 147.909 192.574 146.097 190.665 145.018C188.756 143.938 186.169 143.399 182.904 143.399H176.927V178.262H182.904C186.169 178.262 188.756 177.723 190.665 176.644C192.574 175.564 193.93 173.752 194.732 171.207C195.562 168.633 195.978 165.161 195.978 160.789ZM237.606 192H221.378V129.537H237.606V192ZM285.003 129.537H301.231V192H286.207L264.75 157.593V192H248.563V129.537H263.546L285.003 164.026V129.537ZM336.759 156.182H367.845V180.545C365.742 183.118 363.418 185.29 360.873 187.061C358.327 188.832 355.449 190.188 352.24 191.128C349.03 192.042 345.35 192.498 341.2 192.498C335.085 192.498 329.703 191.17 325.055 188.514C320.434 185.83 316.823 182.108 314.222 177.349C311.649 172.59 310.362 167.07 310.362 160.789C310.362 154.591 311.621 149.113 314.139 144.354C316.657 139.594 320.13 135.873 324.557 133.189C329.011 130.477 334.13 129.122 339.913 129.122C345.89 129.122 350.995 130.643 355.228 133.687C359.489 136.703 362.657 141.089 364.732 146.844L352.198 151.824C351.119 148.919 349.542 146.719 347.467 145.225C345.392 143.703 342.901 142.942 339.996 142.942C335.763 142.942 332.47 144.52 330.118 147.674C327.766 150.8 326.59 155.172 326.59 160.789C326.59 166.793 327.808 171.262 330.243 174.195C332.678 177.128 336.399 178.594 341.407 178.594C342.597 178.594 343.842 178.525 345.143 178.387C346.471 178.221 347.716 178.013 348.878 177.764C350.04 177.487 350.967 177.197 351.659 176.893V168.841H336.759V156.182ZM17.3984 259.625C17.3984 263.245 17.8151 266.305 18.6484 268.805C19.4818 271.305 20.7057 273.206 22.3203 274.508C23.9609 275.784 25.9531 276.422 28.2969 276.422C30.1719 276.422 31.8255 276.044 33.2578 275.289C34.6901 274.534 35.8359 273.453 36.6953 272.047C37.5547 270.615 38.0755 268.922 38.2578 266.969H54.3516C54.3516 270.042 53.7005 272.945 52.3984 275.68C51.1224 278.388 49.3125 280.771 46.9688 282.828C44.651 284.885 41.9036 286.5 38.7266 287.672C35.5755 288.844 32.125 289.43 28.375 289.43C22.9323 289.43 18.2448 288.18 14.3125 285.68C10.4062 283.154 7.39844 279.651 5.28906 275.172C3.20573 270.693 2.16406 265.51 2.16406 259.625C2.16406 253.714 3.20573 248.531 5.28906 244.078C7.39844 239.599 10.4062 236.109 14.3125 233.609C18.2448 231.083 22.9323 229.82 28.375 229.82C32.125 229.82 35.5755 230.406 38.7266 231.578C41.9036 232.75 44.651 234.365 46.9688 236.422C49.3125 238.479 51.1224 240.862 52.3984 243.57C53.7005 246.279 54.3516 249.182 54.3516 252.281H38.2578C38.0755 250.328 37.5547 248.648 36.6953 247.242C35.8359 245.81 34.6901 244.716 33.2578 243.961C31.8255 243.206 30.1719 242.828 28.2969 242.828C25.9531 242.828 23.9609 243.479 22.3203 244.781C20.7057 246.057 19.4818 247.945 18.6484 250.445C17.8151 252.919 17.3984 255.979 17.3984 259.625ZM87.9062 229.82C92.724 229.82 96.8385 230.628 100.25 232.242C103.688 233.857 106.474 236.07 108.609 238.883C110.771 241.669 112.359 244.846 113.375 248.414C114.391 251.982 114.898 255.719 114.898 259.625C114.898 263.531 114.391 267.268 113.375 270.836C112.359 274.404 110.771 277.594 108.609 280.406C106.448 283.193 103.648 285.393 100.211 287.008C96.7995 288.622 92.6979 289.43 87.9062 289.43C83.1146 289.43 79 288.622 75.5625 287.008C72.151 285.393 69.3516 283.193 67.1641 280.406C65.0026 277.594 63.401 274.404 62.3594 270.836C61.3438 267.268 60.8359 263.531 60.8359 259.625C60.8359 255.719 61.3438 251.982 62.3594 248.414C63.375 244.846 64.9635 241.669 67.125 238.883C69.2865 236.07 72.0859 233.857 75.5234 232.242C78.9609 230.628 83.0885 229.82 87.9062 229.82ZM87.9062 242.945C85.7969 242.945 83.8568 243.492 82.0859 244.586C80.3411 245.654 78.9349 247.411 77.8672 249.859C76.7995 252.307 76.2656 255.562 76.2656 259.625C76.2656 263.688 76.7865 266.943 77.8281 269.391C78.8698 271.812 80.276 273.57 82.0469 274.664C83.8177 275.758 85.7708 276.305 87.9062 276.305C90.0677 276.305 92.0208 275.758 93.7656 274.664C95.5365 273.57 96.9427 271.812 97.9844 269.391C99.026 266.943 99.5469 263.688 99.5469 259.625C99.5469 255.562 99.013 252.307 97.9453 249.859C96.9036 247.411 95.4974 245.654 93.7266 244.586C91.9557 243.492 90.0156 242.945 87.9062 242.945ZM137.242 289H122.008V230.211H139.312L155.797 273.727L171.578 230.211H189V289H173.727V255.914L162.789 289H148.805L137.242 255.875V289ZM213.961 289H198.727V230.211H224.117C231.201 230.211 236.552 231.852 240.172 235.133C243.818 238.388 245.641 243.193 245.641 249.547C245.641 255.901 243.818 260.719 240.172 264C236.552 267.281 231.201 268.922 224.117 268.922H213.961V289ZM213.961 243.258V255.875H223.648C225.888 255.875 227.568 255.341 228.688 254.273C229.833 253.206 230.406 251.617 230.406 249.508C230.406 247.424 229.833 245.862 228.688 244.82C227.568 243.779 225.888 243.258 223.648 243.258H213.961ZM262.164 276.734L258.258 289H241.93L263.141 230.211H279.469L300.602 289H284.312L280.406 276.734H262.164ZM265.953 264.938H276.695L271.344 248.062L265.953 264.938ZM339.039 230.211H354.312V289H340.172L319.977 256.617V289H304.742V230.211H318.844L339.039 262.672V230.211ZM399.742 230.211H417.398L395.602 263.453V289H380.289V263.453L358.336 230.211H376.109L387.945 251.07L399.742 230.211ZM11.7588 384H9.47363V333.308H11.7588V384ZM64.4697 333.308H66.7549V384H63.1367L33.1631 335.174V384H30.916V333.308H34.5342L64.4697 382.172V333.308ZM95.167 370.479H97.4902C97.4902 373.12 98.2266 375.329 99.6992 377.106C101.197 378.858 103.114 380.179 105.45 381.067C107.812 381.956 110.3 382.4 112.915 382.4C115.479 382.4 117.854 382.007 120.037 381.22C122.246 380.433 124.023 379.239 125.369 377.64C126.715 376.015 127.388 373.958 127.388 371.47C127.388 368.956 126.677 366.976 125.255 365.528C123.833 364.081 121.992 362.926 119.732 362.062C117.473 361.174 115.086 360.361 112.572 359.625C110.566 359.041 108.599 358.406 106.669 357.721C104.739 357.035 102.987 356.197 101.413 355.207C99.8389 354.191 98.582 352.922 97.6426 351.398C96.7285 349.875 96.2715 347.983 96.2715 345.724C96.2715 343.108 96.957 340.849 98.3281 338.944C99.6992 337.015 101.565 335.529 103.927 334.488C106.288 333.447 108.954 332.927 111.925 332.927C114.845 332.927 117.562 333.498 120.075 334.641C122.614 335.783 124.658 337.396 126.207 339.478C127.781 341.534 128.568 343.972 128.568 346.79H126.283C126.283 344.276 125.61 342.131 124.265 340.354C122.919 338.576 121.154 337.218 118.971 336.278C116.787 335.313 114.438 334.831 111.925 334.831C109.437 334.831 107.177 335.25 105.146 336.088C103.14 336.926 101.54 338.145 100.347 339.744C99.1787 341.344 98.5947 343.286 98.5947 345.571C98.5947 348.009 99.3057 349.964 100.728 351.437C102.175 352.884 104.028 354.064 106.288 354.979C108.548 355.893 110.947 356.743 113.486 357.53C115.492 358.14 117.447 358.8 119.352 359.511C121.281 360.222 123.021 361.085 124.569 362.101C126.144 363.091 127.388 364.335 128.302 365.833C129.241 367.306 129.711 369.134 129.711 371.317C129.711 373.45 129.267 375.342 128.378 376.992C127.515 378.617 126.309 379.976 124.76 381.067C123.211 382.159 121.421 382.984 119.39 383.543C117.358 384.102 115.2 384.381 112.915 384.381C109.919 384.381 107.062 383.86 104.346 382.819C101.654 381.753 99.4453 380.191 97.7188 378.135C96.0176 376.078 95.167 373.526 95.167 370.479ZM160.941 359.625L174.5 384H171.91L158.694 359.625H160.941ZM142.851 384H140.565V333.308H158.085C162.274 333.308 165.575 334.59 167.987 337.154C170.399 339.693 171.605 343.007 171.605 347.095C171.605 351.183 170.399 354.521 167.987 357.111C165.601 359.701 162.3 360.996 158.085 360.996H142.851V384ZM142.851 335.326V359.016H158.085C161.843 359.016 164.661 357.886 166.54 355.626C168.419 353.341 169.358 350.497 169.358 347.095C169.358 343.692 168.419 340.887 166.54 338.678C164.661 336.443 161.843 335.326 158.085 335.326H142.851ZM188.858 384H186.573V333.308H188.858V384ZM250.634 382.02V384H223.25V333.308H225.497V382.02H250.634ZM262.212 368.347L256.271 384H253.871L273.219 333.308H276.57L295.842 384H293.442L287.539 368.347H262.212ZM262.974 366.252H286.739L274.895 334.793L262.974 366.252ZM338.917 333.308H341.202V384H337.584L307.61 335.174V384H305.363V333.308H308.981L338.917 382.172V333.308ZM388.924 333.308H391.971L369.729 358.635L391.971 384H388.924L368.091 360.463L360.854 368.613V384H358.607V333.308H360.854V365.376L388.924 333.308ZM402.749 368.347L396.808 384H394.408L413.756 333.308H417.107L436.379 384H433.979L428.076 368.347H402.749ZM403.511 366.252H427.276L415.432 334.793L403.511 366.252Z" fill="white"/>
<path d="M408.768 160.789C408.768 164.635 409.211 167.886 410.096 170.542C410.982 173.199 412.282 175.219 413.998 176.602C415.741 177.958 417.857 178.636 420.348 178.636C422.34 178.636 424.097 178.235 425.619 177.432C427.14 176.63 428.358 175.481 429.271 173.987C430.184 172.465 430.737 170.667 430.931 168.592H448.031C448.031 171.857 447.339 174.942 445.956 177.847C444.6 180.725 442.677 183.257 440.187 185.442C437.724 187.628 434.805 189.344 431.429 190.589C428.081 191.834 424.415 192.457 420.431 192.457C414.648 192.457 409.667 191.128 405.489 188.472C401.339 185.788 398.143 182.067 395.902 177.308C393.688 172.549 392.582 167.042 392.582 160.789C392.582 154.508 393.688 149.002 395.902 144.271C398.143 139.511 401.339 135.804 405.489 133.147C409.667 130.464 414.648 129.122 420.431 129.122C424.415 129.122 428.081 129.744 431.429 130.989C434.805 132.234 437.724 133.95 440.187 136.136C442.677 138.322 444.6 140.853 445.956 143.731C447.339 146.609 448.031 149.694 448.031 152.986H430.931C430.737 150.911 430.184 149.126 429.271 147.632C428.358 146.111 427.14 144.948 425.619 144.146C424.097 143.344 422.34 142.942 420.348 142.942C417.857 142.942 415.741 143.634 413.998 145.018C412.282 146.373 410.982 148.379 410.096 151.036C409.211 153.664 408.768 156.915 408.768 160.789ZM473.265 178.968L469.115 192H451.766L474.303 129.537H491.651L514.105 192H496.798L492.647 178.968H473.265ZM477.291 166.434H488.705L483.019 148.504L477.291 166.434ZM556.979 162.159L572.418 192H556.563L542.95 162.159H556.979ZM535.355 192H519.168V129.537H546.146C553.672 129.537 559.358 131.28 563.204 134.766C567.078 138.225 569.015 143.33 569.015 150.081C569.015 156.832 567.078 161.951 563.204 165.438C559.358 168.924 553.672 170.667 546.146 170.667H535.355V192ZM535.355 143.399V156.805H545.648C548.028 156.805 549.812 156.237 551.002 155.103C552.219 153.969 552.828 152.281 552.828 150.04C552.828 147.826 552.219 146.166 551.002 145.059C549.812 143.952 548.028 143.399 545.648 143.399H535.355ZM645.34 160.789C645.34 164.746 644.815 168.592 643.763 172.327C642.712 176.035 641.038 179.369 638.741 182.33C636.445 185.29 633.429 187.642 629.693 189.385C625.958 191.128 621.406 192 616.039 192H593.875V129.537H616.039C621.406 129.537 625.958 130.408 629.693 132.151C633.429 133.895 636.445 136.246 638.741 139.207C641.038 142.168 642.712 145.516 643.763 149.251C644.815 152.986 645.34 156.832 645.34 160.789ZM629.112 160.789C629.112 156.417 628.697 152.972 627.867 150.455C627.065 147.909 625.709 146.097 623.8 145.018C621.891 143.938 619.304 143.399 616.039 143.399H610.062V178.262H616.039C619.304 178.262 621.891 177.723 623.8 176.644C625.709 175.564 627.065 173.752 627.867 171.207C628.697 168.633 629.112 165.161 629.112 160.789ZM694.481 178.262V192H653.309V129.537H694.481V143.399H669.496V154.439H692.157V167.098H669.496V178.262H694.481ZM731.461 192H715.233V143.399H696.515V129.537H750.138V143.399H731.461V192ZM762.796 178.968L758.646 192H741.297L763.834 129.537H781.183L803.636 192H786.329L782.179 178.968H762.796ZM766.822 166.434H778.236L772.55 148.504L766.822 166.434ZM825.467 192H809.239V129.537H825.467V192ZM878.136 178.262V192H836.424V129.537H852.611V178.262H878.136ZM902.083 192H885.855V129.537H902.083V192ZM949.481 129.537H965.709V192H950.685L929.227 157.593V192H913.041V129.537H928.023L949.481 164.026V129.537ZM1001.24 156.182H1032.32V180.545C1030.22 183.118 1027.9 185.29 1025.35 187.061C1022.8 188.832 1019.93 190.188 1016.72 191.128C1013.51 192.042 1009.83 192.498 1005.68 192.498C999.562 192.498 994.181 191.17 989.532 188.514C984.911 185.83 981.301 182.108 978.7 177.349C976.126 172.59 974.84 167.07 974.84 160.789C974.84 154.591 976.099 149.113 978.617 144.354C981.135 139.594 984.607 135.873 989.034 133.189C993.489 130.477 998.608 129.122 1004.39 129.122C1010.37 129.122 1015.47 130.643 1019.71 133.687C1023.97 136.703 1027.13 141.089 1029.21 146.844L1016.68 151.824C1015.6 148.919 1014.02 146.719 1011.94 145.225C1009.87 143.703 1007.38 142.942 1004.47 142.942C1000.24 142.942 996.948 144.52 994.596 147.674C992.244 150.8 991.068 155.172 991.068 160.789C991.068 166.793 992.285 171.262 994.72 174.195C997.155 177.128 1000.88 178.594 1005.88 178.594C1007.07 178.594 1008.32 178.525 1009.62 178.387C1010.95 178.221 1012.19 178.013 1013.36 177.764C1014.52 177.487 1015.44 177.197 1016.14 176.893V168.841H1001.24V156.182Z" fill="#FA1818"/>
</svg>
